<svg xmlns="http://www.w3.org/2000/svg" xmlns:xlink="http://www.w3.org/1999/xlink" width="1200" zoomAndPan="magnify" viewBox="0 0 900 899.99999" height="1200" preserveAspectRatio="xMidYMid meet" version="1.0"><defs><g/></defs><g fill="#004aad" fill-opacity="1"><g transform="translate(24.011722, 499.124994)"><g><path d="M 11.90625 -31.515625 L 11.90625 -48.765625 L 80.90625 -79.140625 L 80.90625 -59.296875 L 34.296875 -40.578125 L 34.296875 -39.6875 L 80.90625 -20.96875 L 80.90625 -1.125 Z M 11.90625 -31.515625 "/></g></g></g><g fill="#004aad" fill-opacity="1"><g transform="translate(116.8286, 499.124994)"><g><path d="M 8.71875 0 L 8.71875 -100.359375 L 48.90625 -100.359375 C 59.976562 -100.359375 68.300781 -97.945312 73.875 -93.125 C 79.445312 -88.3125 82.234375 -82.148438 82.234375 -74.640625 C 82.234375 -68.722656 80.515625 -63.941406 77.078125 -60.296875 C 73.648438 -56.660156 69.320312 -54.253906 64.09375 -53.078125 L 64.09375 -52.09375 C 67.914062 -51.925781 71.5 -50.847656 74.84375 -48.859375 C 78.195312 -46.867188 80.921875 -44.09375 83.015625 -40.53125 C 85.109375 -36.96875 86.15625 -32.703125 86.15625 -27.734375 C 86.15625 -22.410156 84.835938 -17.65625 82.203125 -13.46875 C 79.578125 -9.289062 75.695312 -6 70.5625 -3.59375 C 65.4375 -1.195312 59.117188 0 51.609375 0 Z M 29.9375 -17.34375 L 47.234375 -17.34375 C 53.179688 -17.34375 57.503906 -18.484375 60.203125 -20.765625 C 62.898438 -23.054688 64.25 -26.082031 64.25 -29.84375 C 64.25 -33.988281 62.769531 -37.382812 59.8125 -40.03125 C 56.851562 -42.675781 52.828125 -44 47.734375 -44 L 29.9375 -44 Z M 29.9375 -58.359375 L 45.671875 -58.359375 C 50.015625 -58.359375 53.625 -59.492188 56.5 -61.765625 C 59.375 -64.035156 60.8125 -67.148438 60.8125 -71.109375 C 60.8125 -74.734375 59.53125 -77.65625 56.96875 -79.875 C 54.40625 -82.101562 50.769531 -83.21875 46.0625 -83.21875 L 29.9375 -83.21875 Z M 29.9375 -58.359375 "/></g></g></g><g fill="#004aad" fill-opacity="1"><g transform="translate(208.028291, 499.124994)"><g><path d="M 29.203125 -100.359375 L 29.203125 0 L 8.328125 0 L 8.328125 -100.359375 Z M 29.203125 -100.359375 "/></g></g></g><g fill="#004aad" fill-opacity="1"><g transform="translate(245.566695, 499.124994)"><g><path d="M 56.609375 -32.046875 L 56.609375 -75.265625 L 77.484375 -75.265625 L 77.484375 0 L 57.4375 0 L 57.4375 -13.671875 L 56.65625 -13.671875 C 54.957031 -9.265625 52.140625 -5.71875 48.203125 -3.03125 C 44.265625 -0.351562 39.46875 0.984375 33.8125 0.984375 C 26.226562 0.984375 20.09375 -1.535156 15.40625 -6.578125 C 10.71875 -11.628906 8.359375 -18.550781 8.328125 -27.34375 L 8.328125 -75.265625 L 29.203125 -75.265625 L 29.203125 -31.0625 C 29.234375 -26.625 30.425781 -23.113281 32.78125 -20.53125 C 35.132812 -17.945312 38.289062 -16.65625 42.25 -16.65625 C 46 -16.65625 49.335938 -17.960938 52.265625 -20.578125 C 55.191406 -23.191406 56.640625 -27.015625 56.609375 -32.046875 Z M 56.609375 -32.046875 "/></g></g></g><g fill="#004aad" fill-opacity="1"><g transform="translate(331.37575, 499.124994)"><g><path d="M 42.640625 1.46875 C 34.921875 1.46875 28.269531 -0.101562 22.6875 -3.25 C 17.101562 -6.40625 12.804688 -10.882812 9.796875 -16.6875 C 6.796875 -22.488281 5.296875 -29.359375 5.296875 -37.296875 C 5.296875 -45.035156 6.796875 -51.828125 9.796875 -57.671875 C 12.804688 -63.523438 17.046875 -68.082031 22.515625 -71.34375 C 27.992188 -74.613281 34.421875 -76.25 41.796875 -76.25 C 48.429688 -76.25 54.421875 -74.84375 59.765625 -72.03125 C 65.109375 -69.226562 69.347656 -64.988281 72.484375 -59.3125 C 75.617188 -53.644531 77.1875 -46.550781 77.1875 -38.03125 L 77.1875 -32.296875 L 25.921875 -32.296875 L 25.921875 -32.25 C 25.921875 -26.625 27.457031 -22.191406 30.53125 -18.953125 C 33.601562 -15.722656 37.753906 -14.109375 42.984375 -14.109375 C 46.472656 -14.109375 49.488281 -14.84375 52.03125 -16.3125 C 54.582031 -17.789062 56.382812 -19.96875 57.4375 -22.84375 L 76.75 -21.5625 C 75.269531 -14.570312 71.539062 -8.984375 65.5625 -4.796875 C 59.59375 -0.617188 51.953125 1.46875 42.640625 1.46875 Z M 25.921875 -45.234375 L 57.53125 -45.234375 C 57.5 -49.710938 56.0625 -53.40625 53.21875 -56.3125 C 50.375 -59.21875 46.679688 -60.671875 42.140625 -60.671875 C 37.503906 -60.671875 33.695312 -59.164062 30.71875 -56.15625 C 27.75 -53.15625 26.148438 -49.515625 25.921875 -45.234375 Z M 25.921875 -45.234375 "/></g></g></g><g fill="#004aad" fill-opacity="1"><g transform="translate(413.8524, 499.124994)"><g><path d="M 8.71875 0 L 8.71875 -100.359375 L 29.59375 -100.359375 L 29.59375 -62.625 L 30.234375 -62.625 C 31.179688 -64.6875 32.519531 -66.757812 34.25 -68.84375 C 35.988281 -70.9375 38.273438 -72.691406 41.109375 -74.109375 C 43.953125 -75.535156 47.46875 -76.25 51.65625 -76.25 C 57.175781 -76.25 62.238281 -74.816406 66.84375 -71.953125 C 71.445312 -69.097656 75.144531 -64.800781 77.9375 -59.0625 C 80.738281 -53.332031 82.140625 -46.15625 82.140625 -37.53125 C 82.140625 -29.132812 80.78125 -22.050781 78.0625 -16.28125 C 75.351562 -10.519531 71.691406 -6.160156 67.078125 -3.203125 C 62.472656 -0.253906 57.316406 1.21875 51.609375 1.21875 C 47.554688 1.21875 44.113281 0.550781 41.28125 -0.78125 C 38.457031 -2.125 36.15625 -3.816406 34.375 -5.859375 C 32.59375 -7.898438 31.210938 -9.96875 30.234375 -12.0625 L 29.3125 -12.0625 L 29.3125 0 Z M 29.15625 -37.640625 C 29.15625 -30.941406 30.535156 -25.554688 33.296875 -21.484375 C 36.054688 -17.421875 39.953125 -15.390625 44.984375 -15.390625 C 50.117188 -15.390625 54.039062 -17.453125 56.75 -21.578125 C 59.457031 -25.710938 60.8125 -31.066406 60.8125 -37.640625 C 60.8125 -44.171875 59.460938 -49.46875 56.765625 -53.53125 C 54.078125 -57.601562 50.148438 -59.640625 44.984375 -59.640625 C 39.921875 -59.640625 36.015625 -57.65625 33.265625 -53.6875 C 30.523438 -49.71875 29.15625 -44.367188 29.15625 -37.640625 Z M 29.15625 -37.640625 "/></g></g></g><g fill="#004aad" fill-opacity="1"><g transform="translate(501.523706, 499.124994)"><g><path d="M 42.640625 1.46875 C 34.921875 1.46875 28.269531 -0.101562 22.6875 -3.25 C 17.101562 -6.40625 12.804688 -10.882812 9.796875 -16.6875 C 6.796875 -22.488281 5.296875 -29.359375 5.296875 -37.296875 C 5.296875 -45.035156 6.796875 -51.828125 9.796875 -57.671875 C 12.804688 -63.523438 17.046875 -68.082031 22.515625 -71.34375 C 27.992188 -74.613281 34.421875 -76.25 41.796875 -76.25 C 48.429688 -76.25 54.421875 -74.84375 59.765625 -72.03125 C 65.109375 -69.226562 69.347656 -64.988281 72.484375 -59.3125 C 75.617188 -53.644531 77.1875 -46.550781 77.1875 -38.03125 L 77.1875 -32.296875 L 25.921875 -32.296875 L 25.921875 -32.25 C 25.921875 -26.625 27.457031 -22.191406 30.53125 -18.953125 C 33.601562 -15.722656 37.753906 -14.109375 42.984375 -14.109375 C 46.472656 -14.109375 49.488281 -14.84375 52.03125 -16.3125 C 54.582031 -17.789062 56.382812 -19.96875 57.4375 -22.84375 L 76.75 -21.5625 C 75.269531 -14.570312 71.539062 -8.984375 65.5625 -4.796875 C 59.59375 -0.617188 51.953125 1.46875 42.640625 1.46875 Z M 25.921875 -45.234375 L 57.53125 -45.234375 C 57.5 -49.710938 56.0625 -53.40625 53.21875 -56.3125 C 50.375 -59.21875 46.679688 -60.671875 42.140625 -60.671875 C 37.503906 -60.671875 33.695312 -59.164062 30.71875 -56.15625 C 27.75 -53.15625 26.148438 -49.515625 25.921875 -45.234375 Z M 25.921875 -45.234375 "/></g></g></g><g fill="#004aad" fill-opacity="1"><g transform="translate(584.000355, 499.124994)"><g><path d="M 8.328125 0 L 8.328125 -75.265625 L 28.578125 -75.265625 L 28.578125 -62.140625 L 29.359375 -62.140625 C 30.722656 -66.804688 33.015625 -70.335938 36.234375 -72.734375 C 39.453125 -75.140625 43.1875 -76.34375 47.4375 -76.34375 C 49.457031 -76.34375 51.332031 -76.097656 53.0625 -75.609375 C 54.800781 -75.117188 56.359375 -74.453125 57.734375 -73.609375 L 51.453125 -56.359375 C 50.472656 -56.847656 49.398438 -57.265625 48.234375 -57.609375 C 47.078125 -57.953125 45.78125 -58.125 44.34375 -58.125 C 40.132812 -58.125 36.566406 -56.6875 33.640625 -53.8125 C 30.710938 -50.9375 29.234375 -47.195312 29.203125 -42.59375 L 29.203125 0 Z M 8.328125 0 "/></g></g></g><g fill="#004aad" fill-opacity="1"><g transform="translate(643.150285, 499.124994)"><g><path d="M 8.328125 0 L 8.328125 -75.265625 L 28.578125 -75.265625 L 28.578125 -62.140625 L 29.359375 -62.140625 C 30.722656 -66.804688 33.015625 -70.335938 36.234375 -72.734375 C 39.453125 -75.140625 43.1875 -76.34375 47.4375 -76.34375 C 49.457031 -76.34375 51.332031 -76.097656 53.0625 -75.609375 C 54.800781 -75.117188 56.359375 -74.453125 57.734375 -73.609375 L 51.453125 -56.359375 C 50.472656 -56.847656 49.398438 -57.265625 48.234375 -57.609375 C 47.078125 -57.953125 45.78125 -58.125 44.34375 -58.125 C 40.132812 -58.125 36.566406 -56.6875 33.640625 -53.8125 C 30.710938 -50.9375 29.234375 -47.195312 29.203125 -42.59375 L 29.203125 0 Z M 8.328125 0 "/></g></g></g><g fill="#004aad" fill-opacity="1"><g transform="translate(702.300215, 499.124994)"><g><path d="M 20.484375 29.3125 C 17.515625 29.3125 14.972656 29.054688 12.859375 28.546875 C 10.753906 28.035156 9.113281 27.519531 7.9375 27 L 12.640625 10.828125 C 16.335938 11.941406 19.453125 12.234375 21.984375 11.703125 C 24.515625 11.179688 26.515625 9.207031 27.984375 5.78125 L 29.359375 2.15625 L 2.359375 -75.265625 L 24.3125 -75.265625 L 39.890625 -20 L 40.671875 -20 L 56.40625 -75.265625 L 78.5 -75.265625 L 49.109375 8.625 C 46.984375 14.632812 43.59375 19.582031 38.9375 23.46875 C 34.28125 27.363281 28.128906 29.3125 20.484375 29.3125 Z M 20.484375 29.3125 "/></g></g></g><g fill="#004aad" fill-opacity="1"><g transform="translate(783.159723, 499.124994)"><g><path d="M 80.90625 -31.515625 L 11.90625 -1.125 L 11.90625 -20.96875 L 58.515625 -39.6875 L 58.515625 -40.578125 L 11.90625 -59.296875 L 11.90625 -79.140625 L 80.90625 -48.765625 Z M 80.90625 -31.515625 "/></g></g></g></svg>